<svg id="Layer_1" data-name="Layer 1" xmlns="http://www.w3.org/2000/svg" xmlns:xlink="http://www.w3.org/1999/xlink" viewBox="0 0 846 581"><defs><style>.cls-1,.cls-2{fill:none;}.cls-1{clip-rule:evenodd;}.cls-3{fill:#181818;}.cls-4{clip-path:url(#clip-path);}.cls-5{clip-path:url(#clip-path-2);}.cls-6{isolation:isolate;}.cls-7{clip-path:url(#clip-path-3);}.cls-8{clip-path:url(#clip-path-4);}.cls-9{clip-path:url(#clip-path-5);}.cls-10{fill:#fff;}</style><clipPath id="clip-path"><path class="cls-1" d="M0,0H846V577a4,4,0,0,1-4,4h0L4,580a4,4,0,0,1-4-4Z"/></clipPath><clipPath id="clip-path-2"><rect class="cls-2" x="-537" y="-242" width="1920" height="1080"/></clipPath><clipPath id="clip-path-3"><rect class="cls-2" x="481" y="-151" width="604" height="604"/></clipPath><clipPath id="clip-path-4"><path class="cls-1" d="M828-144.74,596.12-82.59A65.88,65.88,0,0,0,549.53-36L487.42,196.07a66,66,0,0,0,17.07,63.69L674.3,429.66A65.88,65.88,0,0,0,738,446.73l231.92-62.14A65.88,65.88,0,0,0,1016.47,338l62.11-232a66,66,0,0,0-17.07-63.69L891.7-127.66A65.9,65.9,0,0,0,828-144.74"/></clipPath><clipPath id="clip-path-5"><rect class="cls-2" x="485" width="361" height="449"/></clipPath></defs><title>presentation-station-bg</title><rect class="cls-3" width="846" height="581"/><g class="cls-4"><g class="cls-5"><g class="cls-6"><g class="cls-7"><g class="cls-8"><g class="cls-9"><rect class="cls-10" x="472" y="-128" width="622" height="558" transform="translate(-12.4 207.8) rotate(-15)"/></g></g></g></g></g></g></svg>