<svg width="214" height="63" xmlns="http://www.w3.org/2000/svg">
<defs>
    <linearGradient id="grad1" x1="0%" y1="0%" x2="100%" y2="0%">
      <stop offset="0%" style="stop-color: #F72D1A;" />
      <stop offset="100%" style="stop-color: #EC140B;" />
    </linearGradient>
  </defs>
  <path d="M5.84 17v6.804c0 .624-.192 1.146-.576 1.566-.384.42-.888.63-1.512.63-.6 0-1.092-.21-1.476-.63-.384-.42-.576-.942-.576-1.566V2.996c0-.624.21-1.146.63-1.566.42-.42.942-.63 1.566-.63h8.208c1.248 0 2.418.36 3.51 1.08 1.092.72 1.974 1.692 2.646 2.916.672 1.224 1.008 2.592 1.008 4.104 0 1.488-.336 2.844-1.008 4.068-.672 1.224-1.554 2.202-2.646 2.934-1.092.732-2.262 1.098-3.51 1.098H5.84zm0-12.06v7.956h6.264c.456 0 .9-.192 1.332-.576.432-.384.792-.882 1.08-1.494a4.47 4.47 0 0 0 .432-1.926c0-.696-.144-1.344-.432-1.944-.288-.6-.648-1.086-1.08-1.458-.432-.372-.876-.558-1.332-.558H5.84zm21.178 4.479c.219-.38.477-.727.774-1.041.42-.444.894-.816 1.422-1.116a6.457 6.457 0 0 1 1.692-.666c.6-.144 1.2-.216 1.8-.216.72 0 1.326.204 1.818.612.492.408.738.888.738 1.44 0 .792-.204 1.362-.612 1.71-.408.348-.852.522-1.332.522-.456 0-.87-.084-1.242-.252a3.075 3.075 0 0 0-1.278-.252c-.432 0-.87.102-1.314.306-.444.204-.852.522-1.224.954-.372.432-.672.966-.9 1.602-.228.636-.342 1.386-.342 2.25v8.532c0 .624-.204 1.146-.612 1.566-.408.42-.924.63-1.548.63s-1.14-.21-1.548-.63c-.408-.42-.612-.942-.612-1.566V8.936c0-.624.204-1.146.612-1.566.408-.42.924-.63 1.548-.63s1.14.21 1.548.63c.408.42.612.942.612 1.566v.483zm13.4 4.845h9.434v-.252a3.283 3.283 0 0 0-.738-1.872 4.82 4.82 0 0 0-1.656-1.314 4.717 4.717 0 0 0-2.106-.486c-.72 0-1.392.096-2.016.288a3.862 3.862 0 0 0-1.62.972c-.456.456-.816 1.068-1.08 1.836-.087.254-.16.53-.218.828zm-.038 3.6c.13.662.354 1.256.67 1.782.54.9 1.236 1.584 2.088 2.052a5.56 5.56 0 0 0 2.718.702c.888 0 1.596-.072 2.124-.216.528-.144.954-.318 1.278-.522.324-.204.618-.378.882-.522.432-.216.84-.324 1.224-.324.528 0 .966.18 1.314.54.348.36.522.78.522 1.26 0 .648-.336 1.236-1.008 1.764-.624.528-1.5.99-2.628 1.386a10.467 10.467 0 0 1-3.492.594c-2.04 0-3.81-.426-5.31-1.278-1.5-.852-2.652-2.01-3.456-3.474-.804-1.464-1.206-3.12-1.206-4.968 0-2.16.438-4.002 1.314-5.526.876-1.524 2.022-2.694 3.438-3.51 1.416-.816 2.916-1.224 4.5-1.224 1.224 0 2.382.252 3.474.756a9.496 9.496 0 0 1 2.898 2.07c.84.876 1.506 1.89 1.998 3.042a9.25 9.25 0 0 1 .738 3.672 1.849 1.849 0 0 1-.684 1.404 2.29 2.29 0 0 1-1.512.54H40.38zm16.214 5.148c-.24-.336-.348-.768-.324-1.296.024-.528.336-.984.936-1.368.384-.24.792-.342 1.224-.306.432.036.852.258 1.26.666.696.696 1.428 1.236 2.196 1.62.768.384 1.728.576 2.88.576.36-.024.756-.078 1.188-.162.432-.084.81-.276 1.134-.576.324-.3.486-.762.486-1.386 0-.528-.18-.948-.54-1.26-.36-.312-.834-.576-1.422-.792a22.6 22.6 0 0 0-1.962-.612 54.75 54.75 0 0 1-2.286-.72 9.545 9.545 0 0 1-2.142-1.026 4.931 4.931 0 0 1-1.584-1.674c-.408-.696-.612-1.572-.612-2.628 0-1.2.336-2.22 1.008-3.06.672-.84 1.542-1.488 2.61-1.944a8.484 8.484 0 0 1 3.366-.684c.744 0 1.524.09 2.34.27.816.18 1.596.468 2.34.864a5.782 5.782 0 0 1 1.872 1.566c.264.36.42.792.468 1.296.048.504-.18.96-.684 1.368-.36.288-.78.414-1.26.378-.48-.036-.876-.198-1.188-.486-.408-.528-.954-.948-1.638-1.26-.684-.312-1.47-.468-2.358-.468-.36 0-.75.042-1.17.126a2.31 2.31 0 0 0-1.098.54c-.312.276-.468.714-.468 1.314 0 .552.18.99.54 1.314.36.324.846.588 1.458.792.612.204 1.266.402 1.962.594.72.192 1.452.42 2.196.684a8.692 8.692 0 0 1 2.052 1.044c.624.432 1.128.99 1.512 1.674.384.684.576 1.554.576 2.61 0 1.224-.36 2.268-1.08 3.132a6.837 6.837 0 0 1-2.7 1.962 8.637 8.637 0 0 1-3.312.666c-1.416 0-2.832-.246-4.248-.738-1.416-.492-2.592-1.362-3.528-2.61zm21.356-8.748h9.434v-.252a3.283 3.283 0 0 0-.738-1.872 4.82 4.82 0 0 0-1.656-1.314 4.717 4.717 0 0 0-2.106-.486c-.72 0-1.392.096-2.016.288a3.862 3.862 0 0 0-1.62.972c-.456.456-.816 1.068-1.08 1.836-.087.254-.16.53-.218.828zm-.038 3.6c.13.662.354 1.256.67 1.782.54.9 1.236 1.584 2.088 2.052a5.56 5.56 0 0 0 2.718.702c.888 0 1.596-.072 2.124-.216.528-.144.954-.318 1.278-.522.324-.204.618-.378.882-.522.432-.216.84-.324 1.224-.324.528 0 .966.18 1.314.54.348.36.522.78.522 1.26 0 .648-.336 1.236-1.008 1.764-.624.528-1.5.99-2.628 1.386a10.467 10.467 0 0 1-3.492.594c-2.04 0-3.81-.426-5.31-1.278-1.5-.852-2.652-2.01-3.456-3.474-.804-1.464-1.206-3.12-1.206-4.968 0-2.16.438-4.002 1.314-5.526.876-1.524 2.022-2.694 3.438-3.51 1.416-.816 2.916-1.224 4.5-1.224 1.224 0 2.382.252 3.474.756a9.496 9.496 0 0 1 2.898 2.07c.84.876 1.506 1.89 1.998 3.042a9.25 9.25 0 0 1 .738 3.672 1.849 1.849 0 0 1-.684 1.404 2.29 2.29 0 0 1-1.512.54H77.912zm21.65-8.318a8.98 8.98 0 0 1 1.836-1.798 7.32 7.32 0 0 1 1.872-.99 6.614 6.614 0 0 1 2.268-.378c1.776 0 3.126.372 4.05 1.116.924.744 1.56 1.734 1.908 2.97.348 1.236.522 2.61.522 4.122v9.216c0 .624-.204 1.146-.612 1.566-.408.42-.924.63-1.548.63s-1.14-.21-1.548-.63c-.408-.42-.612-.942-.612-1.566v-9.216c0-.792-.102-1.506-.306-2.142a2.959 2.959 0 0 0-1.098-1.53c-.528-.384-1.284-.576-2.268-.576-.96 0-1.77.192-2.43.576a3.94 3.94 0 0 0-1.512 1.53c-.348.636-.522 1.35-.522 2.142v9.216c0 .624-.204 1.146-.612 1.566-.408.42-.924.63-1.548.63s-1.14-.21-1.548-.63c-.408-.42-.612-.942-.612-1.566V8.936c0-.624.204-1.146.612-1.566.408-.42.924-.63 1.548-.63s1.14.21 1.548.63c.408.42.612.942.612 1.566v.61zM116.564 7.1h8.532c.576 0 1.056.192 1.44.576.384.384.576.864.576 1.44 0 .552-.192 1.014-.576 1.386-.384.372-.864.558-1.44.558h-8.532c-.576 0-1.056-.192-1.44-.576-.384-.384-.576-.864-.576-1.44 0-.552.192-1.014.576-1.386.384-.372.864-.558 1.44-.558zm3.852-4.5c.624 0 1.134.21 1.53.63.396.42.594.942.594 1.566v16.02c0 .336.066.612.198.828.132.216.312.372.54.468.228.096.474.144.738.144.288 0 .552-.054.792-.162.24-.108.516-.162.828-.162.336 0 .642.156.918.468.276.312.414.744.414 1.296 0 .672-.366 1.224-1.098 1.656a4.561 4.561 0 0 1-2.358.648c-.504 0-1.062-.042-1.674-.126a4.523 4.523 0 0 1-1.728-.612c-.54-.324-.99-.822-1.35-1.494-.36-.672-.54-1.596-.54-2.772v-16.2c0-.624.21-1.146.63-1.566.42-.42.942-.63 1.566-.63zm23.734 21.245a7.594 7.594 0 0 1-1.08.967 8.387 8.387 0 0 1-2.034 1.098c-.78.3-1.626.45-2.538.45-1.656 0-3.156-.426-4.5-1.278-1.344-.852-2.406-2.028-3.186-3.528-.78-1.5-1.17-3.222-1.17-5.166 0-1.968.39-3.702 1.17-5.202.78-1.5 1.83-2.676 3.15-3.528 1.32-.852 2.784-1.278 4.392-1.278 1.032 0 1.98.156 2.844.468.864.312 1.614.708 2.25 1.188.258.194.492.39.702.586v-.046c0-.624.204-1.146.612-1.566.408-.42.924-.63 1.548-.63s1.14.204 1.548.612c.408.408.612.936.612 1.584v15.228c0 .624-.204 1.146-.612 1.566-.408.42-.924.63-1.548.63s-1.14-.21-1.548-.63c-.4-.41-.603-.92-.612-1.525zm-5.112-1.445c1.056 0 1.98-.264 2.772-.792.792-.528 1.41-1.248 1.854-2.16.444-.912.666-1.932.666-3.06 0-1.152-.222-2.184-.666-3.096-.444-.912-1.062-1.632-1.854-2.16-.792-.528-1.716-.792-2.772-.792-1.032 0-1.944.264-2.736.792-.792.528-1.41 1.248-1.854 2.16-.444.912-.666 1.944-.666 3.096 0 1.128.222 2.148.666 3.06.444.912 1.062 1.632 1.854 2.16.792.528 1.704.792 2.736.792zm13.978-15.3h8.532c.576 0 1.056.192 1.44.576.384.384.576.864.576 1.44 0 .552-.192 1.014-.576 1.386-.384.372-.864.558-1.44.558h-8.532c-.576 0-1.056-.192-1.44-.576-.384-.384-.576-.864-.576-1.44 0-.552.192-1.014.576-1.386.384-.372.864-.558 1.44-.558zm3.852-4.5c.624 0 1.134.21 1.53.63.396.42.594.942.594 1.566v16.02c0 .336.066.612.198.828.132.216.312.372.54.468.228.096.474.144.738.144.288 0 .552-.054.792-.162.24-.108.516-.162.828-.162.336 0 .642.156.918.468.276.312.414.744.414 1.296 0 .672-.366 1.224-1.098 1.656a4.561 4.561 0 0 1-2.358.648c-.504 0-1.062-.042-1.674-.126a4.523 4.523 0 0 1-1.728-.612c-.54-.324-.99-.822-1.35-1.494-.36-.672-.54-1.596-.54-2.772v-16.2c0-.624.21-1.146.63-1.566.42-.42.942-.63 1.566-.63zm14.374 21.204c0 .624-.204 1.146-.612 1.566-.408.42-.924.63-1.548.63s-1.14-.21-1.548-.63c-.408-.42-.612-.942-.612-1.566V8.936c0-.624.204-1.146.612-1.566.408-.42.924-.63 1.548-.63s1.14.21 1.548.63c.408.42.612.942.612 1.566v14.868zM169.046 4.4c-.816 0-1.392-.132-1.728-.396-.336-.264-.504-.732-.504-1.404v-.684c0-.696.186-1.17.558-1.422.372-.252.942-.378 1.71-.378.84 0 1.428.132 1.764.396.336.264.504.732.504 1.404V2.6c0 .696-.18 1.17-.54 1.422-.36.252-.948.378-1.764.378zm24.778 11.988c0 1.968-.438 3.702-1.314 5.202-.876 1.5-2.052 2.67-3.528 3.51-1.476.84-3.126 1.26-4.95 1.26-1.824 0-3.474-.42-4.95-1.26-1.476-.84-2.652-2.01-3.528-3.51-.876-1.5-1.314-3.234-1.314-5.202s.438-3.702 1.314-5.202a9.568 9.568 0 0 1 3.528-3.528c1.476-.852 3.126-1.278 4.95-1.278 1.824 0 3.474.426 4.95 1.278a9.568 9.568 0 0 1 3.528 3.528c.876 1.5 1.314 3.234 1.314 5.202zm-4.32 0c0-1.224-.246-2.286-.738-3.186-.492-.9-1.152-1.602-1.98-2.106a5.194 5.194 0 0 0-2.754-.756 5.194 5.194 0 0 0-2.754.756c-.828.504-1.488 1.206-1.98 2.106-.492.9-.738 1.962-.738 3.186 0 1.2.246 2.25.738 3.15.492.9 1.152 1.602 1.98 2.106a5.194 5.194 0 0 0 2.754.756 5.194 5.194 0 0 0 2.754-.756c.828-.504 1.488-1.206 1.98-2.106.492-.9.738-1.95.738-3.15zm11.89-6.842a8.98 8.98 0 0 1 1.836-1.798 7.32 7.32 0 0 1 1.872-.99 6.614 6.614 0 0 1 2.268-.378c1.776 0 3.126.372 4.05 1.116.924.744 1.56 1.734 1.908 2.97.348 1.236.522 2.61.522 4.122v9.216c0 .624-.204 1.146-.612 1.566-.408.42-.924.63-1.548.63s-1.14-.21-1.548-.63c-.408-.42-.612-.942-.612-1.566v-9.216c0-.792-.102-1.506-.306-2.142a2.959 2.959 0 0 0-1.098-1.53c-.528-.384-1.284-.576-2.268-.576-.96 0-1.77.192-2.43.576a3.94 3.94 0 0 0-1.512 1.53c-.348.636-.522 1.35-.522 2.142v9.216c0 .624-.204 1.146-.612 1.566-.408.42-.924.63-1.548.63s-1.14-.21-1.548-.63c-.408-.42-.612-.942-.612-1.566V8.936c0-.624.204-1.146.612-1.566.408-.42.924-.63 1.548-.63s1.14.21 1.548.63c.408.42.612.942.612 1.566v.61zM9.8 62.36c-1.68 0-3.192-.21-4.536-.63-1.344-.42-2.628-1.158-3.852-2.214a2.841 2.841 0 0 1-.72-.9 2.237 2.237 0 0 1-.252-1.008c0-.552.198-1.038.594-1.458.396-.42.894-.63 1.494-.63.456 0 .864.144 1.224.432.912.744 1.818 1.308 2.718 1.692.9.384 2.01.576 3.33.576.888 0 1.704-.138 2.448-.414.744-.276 1.344-.648 1.8-1.116.456-.468.684-1.002.684-1.602 0-.72-.216-1.332-.648-1.836-.432-.504-1.092-.93-1.98-1.278-.888-.348-2.016-.618-3.384-.81-1.296-.192-2.436-.486-3.42-.882s-1.806-.9-2.466-1.512a5.978 5.978 0 0 1-1.494-2.16c-.336-.828-.504-1.758-.504-2.79 0-1.56.402-2.892 1.206-3.996.804-1.104 1.89-1.944 3.258-2.52 1.368-.576 2.88-.864 4.536-.864 1.56 0 3.006.234 4.338.702 1.332.468 2.418 1.062 3.258 1.782.696.552 1.044 1.188 1.044 1.908 0 .528-.204 1.008-.612 1.44-.408.432-.888.648-1.44.648a1.58 1.58 0 0 1-.972-.324c-.384-.336-.9-.654-1.548-.954-.648-.3-1.332-.552-2.052-.756-.72-.204-1.392-.306-2.016-.306-1.032 0-1.902.132-2.61.396s-1.242.624-1.602 1.08c-.36.456-.54.984-.54 1.584 0 .72.21 1.314.63 1.782.42.468 1.026.84 1.818 1.116.792.276 1.74.522 2.844.738 1.44.264 2.706.576 3.798.936 1.092.36 1.998.822 2.718 1.386a5.247 5.247 0 0 1 1.62 2.124c.36.852.54 1.89.54 3.114 0 1.56-.432 2.904-1.296 4.032-.864 1.128-1.998 1.992-3.402 2.592-1.404.6-2.922.9-4.554.9zM22.698 43.1h8.532c.576 0 1.056.192 1.44.576.384.384.576.864.576 1.44 0 .552-.192 1.014-.576 1.386-.384.372-.864.558-1.44.558h-8.532c-.576 0-1.056-.192-1.44-.576-.384-.384-.576-.864-.576-1.44 0-.552.192-1.014.576-1.386.384-.372.864-.558 1.44-.558zm3.852-4.5c.624 0 1.134.21 1.53.63.396.42.594.942.594 1.566v16.02c0 .336.066.612.198.828.132.216.312.372.54.468.228.096.474.144.738.144.288 0 .552-.054.792-.162.24-.108.516-.162.828-.162.336 0 .642.156.918.468.276.312.414.744.414 1.296 0 .672-.366 1.224-1.098 1.656a4.561 4.561 0 0 1-2.358.648c-.504 0-1.062-.042-1.674-.126a4.523 4.523 0 0 1-1.728-.612c-.54-.324-.99-.822-1.35-1.494-.36-.672-.54-1.596-.54-2.772v-16.2c0-.624.21-1.146.63-1.566.42-.42.942-.63 1.566-.63zm23.734 21.245a7.594 7.594 0 0 1-1.08.967 8.387 8.387 0 0 1-2.034 1.098c-.78.3-1.626.45-2.538.45-1.656 0-3.156-.426-4.5-1.278-1.344-.852-2.406-2.028-3.186-3.528-.78-1.5-1.17-3.222-1.17-5.166 0-1.968.39-3.702 1.17-5.202.78-1.5 1.83-2.676 3.15-3.528 1.32-.852 2.784-1.278 4.392-1.278 1.032 0 1.98.156 2.844.468.864.312 1.614.708 2.25 1.188.258.194.492.39.702.586v-.046c0-.624.204-1.146.612-1.566.408-.42.924-.63 1.548-.63s1.14.204 1.548.612c.408.408.612.936.612 1.584v15.228c0 .624-.204 1.146-.612 1.566-.408.42-.924.63-1.548.63s-1.14-.21-1.548-.63c-.4-.41-.603-.92-.612-1.525zM45.172 58.4c1.056 0 1.98-.264 2.772-.792.792-.528 1.41-1.248 1.854-2.16.444-.912.666-1.932.666-3.06 0-1.152-.222-2.184-.666-3.096-.444-.912-1.062-1.632-1.854-2.16-.792-.528-1.716-.792-2.772-.792-1.032 0-1.944.264-2.736.792-.792.528-1.41 1.248-1.854 2.16-.444.912-.666 1.944-.666 3.096 0 1.128.222 2.148.666 3.06.444.912 1.062 1.632 1.854 2.16.792.528 1.704.792 2.736.792zM59.15 43.1h8.532c.576 0 1.056.192 1.44.576.384.384.576.864.576 1.44 0 .552-.192 1.014-.576 1.386-.384.372-.864.558-1.44.558H59.15c-.576 0-1.056-.192-1.44-.576-.384-.384-.576-.864-.576-1.44 0-.552.192-1.014.576-1.386.384-.372.864-.558 1.44-.558zm3.852-4.5c.624 0 1.134.21 1.53.63.396.42.594.942.594 1.566v16.02c0 .336.066.612.198.828.132.216.312.372.54.468.228.096.474.144.738.144.288 0 .552-.054.792-.162.24-.108.516-.162.828-.162.336 0 .642.156.918.468.276.312.414.744.414 1.296 0 .672-.366 1.224-1.098 1.656a4.561 4.561 0 0 1-2.358.648c-.504 0-1.062-.042-1.674-.126a4.523 4.523 0 0 1-1.728-.612c-.54-.324-.99-.822-1.35-1.494-.36-.672-.54-1.596-.54-2.772v-16.2c0-.624.21-1.146.63-1.566.42-.42.942-.63 1.566-.63zm14.374 21.204c0 .624-.204 1.146-.612 1.566-.408.42-.924.63-1.548.63s-1.14-.21-1.548-.63c-.408-.42-.612-.942-.612-1.566V44.936c0-.624.204-1.146.612-1.566.408-.42.924-.63 1.548-.63s1.14.21 1.548.63c.408.42.612.942.612 1.566v14.868zM75.18 40.4c-.816 0-1.392-.132-1.728-.396-.336-.264-.504-.732-.504-1.404v-.684c0-.696.186-1.17.558-1.422.372-.252.942-.378 1.71-.378.84 0 1.428.132 1.764.396.336.264.504.732.504 1.404v.684c0 .696-.18 1.17-.54 1.422-.36.252-.948.378-1.764.378zm24.778 11.988c0 1.968-.438 3.702-1.314 5.202-.876 1.5-2.052 2.67-3.528 3.51-1.476.84-3.126 1.26-4.95 1.26-1.824 0-3.474-.42-4.95-1.26-1.476-.84-2.652-2.01-3.528-3.51-.876-1.5-1.314-3.234-1.314-5.202s.438-3.702 1.314-5.202a9.568 9.568 0 0 1 3.528-3.528c1.476-.852 3.126-1.278 4.95-1.278 1.824 0 3.474.426 4.95 1.278a9.568 9.568 0 0 1 3.528 3.528c.876 1.5 1.314 3.234 1.314 5.202zm-4.32 0c0-1.224-.246-2.286-.738-3.186-.492-.9-1.152-1.602-1.98-2.106a5.194 5.194 0 0 0-2.754-.756 5.194 5.194 0 0 0-2.754.756c-.828.504-1.488 1.206-1.98 2.106-.492.9-.738 1.962-.738 3.186 0 1.2.246 2.25.738 3.15.492.9 1.152 1.602 1.98 2.106a5.194 5.194 0 0 0 2.754.756 5.194 5.194 0 0 0 2.754-.756c.828-.504 1.488-1.206 1.98-2.106.492-.9.738-1.95.738-3.15zm11.89-6.842a8.98 8.98 0 0 1 1.836-1.798 7.32 7.32 0 0 1 1.872-.99 6.614 6.614 0 0 1 2.268-.378c1.776 0 3.126.372 4.05 1.116.924.744 1.56 1.734 1.908 2.97.348 1.236.522 2.61.522 4.122v9.216c0 .624-.204 1.146-.612 1.566-.408.42-.924.63-1.548.63s-1.14-.21-1.548-.63c-.408-.42-.612-.942-.612-1.566v-9.216c0-.792-.102-1.506-.306-2.142a2.959 2.959 0 0 0-1.098-1.53c-.528-.384-1.284-.576-2.268-.576-.96 0-1.77.192-2.43.576a3.94 3.94 0 0 0-1.512 1.53c-.348.636-.522 1.35-.522 2.142v9.216c0 .624-.204 1.146-.612 1.566-.408.42-.924.63-1.548.63s-1.14-.21-1.548-.63c-.408-.42-.612-.942-.612-1.566V44.936c0-.624.204-1.146.612-1.566.408-.42.924-.63 1.548-.63s1.14.21 1.548.63c.408.42.612.942.612 1.566v.61zm18.694 16.418c-.696 0-1.23-.186-1.602-.558-.372-.372-.558-.906-.558-1.602v-.612c0-.696.186-1.23.558-1.602.372-.372.906-.558 1.602-.558h.468c.696 0 1.23.186 1.602.558.372.372.558.906.558 1.602v.612c0 .696-.186 1.23-.558 1.602-.372.372-.906.558-1.602.558h-.468z" fill="url(#grad1)" fill-rule="nonzero"/></svg>
